# xmcd
# 
# Track frame offsets:
#     150
#     19167
#     49850
#     80432
#     118382
# 
# Disc length: 1998
# 
# Revision: 1
# Processed by: cddbd v1.5.2PL0 Copyright (c) Steve Scherf et al.
# Submitted via: BonkEnc v1.0.8
# 
DISCID=3d07cc05
DTITLE=Art Farmer - Yama
DYEAR=1979
DGENRE=Fusion
TTITLE0=Dulzura
TTITLE1=Stop (I Think Again)
TTITLE2=Young And Fine
TTITLE3=Lotus Blossom
TTITLE4=Blue Montreux
EXTD=YEAR: 1979
EXTT0=
EXTT1=
EXTT2=
EXTT3=
EXTT4=
PLAYORDER=
